<svg   width="128px"   height="128px"  viewBox="0 0 48 48" version="1.1" xmlns="http://www.w3.org/2000/svg" xmlns:xlink="http://www.w3.org/1999/xlink">
    <!-- Generator: Sketch 52.6 (67491) - http://www.bohemiancoding.com/sketch -->
    <title>上报 DTMF 按键--48px</title>
    <desc>Created with Sketch.</desc>
    <g id="上报-DTMF-按键--48px" stroke="none" stroke-width="1" fill="none" fill-rule="evenodd">
        <rect id="Rectangle-Copy" fill="#444444" opacity="0" x="0" y="0" width="48" height="48"></rect>
        <g id="Group" transform="translate(2.000000, 2.000000)">
            <rect id="Rectangle-94-Copy" fill="#00A4FF" x="28" y="28" width="16" height="16"></rect>
            <polygon id="Rectangle-95-Copy" fill="#334966" points="4 35 40 35 37.5172414 37 4 37"></polygon>
            <polygon id="Rectangle-96-Copy" fill="#334966" points="4 21 6 22 6 37 4 37"></polygon>
            <polygon id="Rectangle-97-Copy" fill="#334966" transform="translate(37.000000, 38.000000) scale(-1, -1) translate(-37.000000, -38.000000) " points="40 35 40 41 34 41"></polygon>
            <polygon id="Polygon-2" fill="#00A4FF" points="8.60288568 -1.11910481e-13 17 4.84807621 17 14.5442286 8.60288568 19.3923048 0.205771366 14.5442286 0.205771366 4.84807621"></polygon>
            <polygon id="Rectangle-95" fill="#334966" points="6.48275862 8 40 8 40 10 4 10"></polygon>
            <rect id="Rectangle-96" fill="#334966" x="38" y="8" width="2" height="15"></rect>
            <polygon id="Rectangle-97" fill="#334966" points="10 4 10 10 4 10"></polygon>
        </g>
    </g>
</svg>