<svg   width="128px"   height="128px"  viewBox="0 0 48 48" version="1.1" xmlns="http://www.w3.org/2000/svg" xmlns:xlink="http://www.w3.org/1999/xlink">
    <!-- Generator: Sketch 52.6 (67491) - http://www.bohemiancoding.com/sketch -->
    <title>架构开放兼容-48px</title>
    <desc>Created with Sketch.</desc>
    <g id="架构开放兼容-48px" stroke="none" stroke-width="1" fill="none" fill-rule="evenodd">
        <rect id="Rectangle-Copy" fill="#444444" opacity="0" x="0" y="0" width="48" height="48"></rect>
        <g id="1547630399218-48x48" transform="translate(0.000000, 1.000000)">
            <path d="M12,20 L12,44 L2,44 L2,20 L12,20 Z M14,18 L0,18 L0,46 L14,46 L14,18 Z" id="Shape" fill="#334966" fill-rule="nonzero"></path>
            <rect id="Rectangle" fill="#00A4FF" x="4" y="23" width="6" height="2"></rect>
            <rect id="Rectangle" fill="#00A4FF" x="4" y="27" width="6" height="2"></rect>
            <rect id="Rectangle" fill="#00A4FF" x="4" y="31" width="6" height="2"></rect>
            <path d="M46,20 L46,44 L36,44 L36,20 L46,20 Z M48,18 L34,18 L34,46 L48,46 L48,18 Z" id="Shape" fill="#334966" fill-rule="nonzero"></path>
            <rect id="Rectangle" fill="#00A4FF" x="38" y="23" width="6" height="2"></rect>
            <rect id="Rectangle" fill="#00A4FF" x="38" y="27" width="6" height="2"></rect>
            <rect id="Rectangle" fill="#00A4FF" x="38" y="31" width="6" height="2"></rect>
            <path d="M29,2 L29,26 L19,26 L19,2 L29,2 Z M31,0 L17,0 L17,28 L31,28 L31,0 Z" id="Shape" fill="#334966" fill-rule="nonzero"></path>
            <rect id="Rectangle" fill="#00A4FF" x="21" y="5" width="6" height="2"></rect>
            <rect id="Rectangle" fill="#00A4FF" x="21" y="9" width="6" height="2"></rect>
            <rect id="Rectangle" fill="#00A4FF" x="21" y="13" width="6" height="2"></rect>
            <rect id="Rectangle" fill="#334966" x="1" y="6" width="2" height="11"></rect>
            <rect id="Rectangle" fill="#334966" x="1" y="6" width="15" height="2"></rect>
            <rect id="Rectangle" fill="#334966" x="32" y="6" width="2" height="2"></rect>
            <rect id="Rectangle" fill="#334966" x="36" y="6" width="2" height="2"></rect>
            <rect id="Rectangle" fill="#334966" x="40" y="6" width="2" height="2"></rect>
            <rect id="Rectangle" fill="#334966" x="44" y="6" width="2" height="2"></rect>
            <rect id="Rectangle" fill="#334966" x="45" y="6" width="2" height="2"></rect>
            <rect id="Rectangle" fill="#334966" x="45" y="7" width="2" height="2"></rect>
            <rect id="Rectangle" fill="#334966" x="45" y="11" width="2" height="2"></rect>
            <rect id="Rectangle" fill="#334966" x="45" y="15" width="2" height="2"></rect>
            <rect id="Rectangle" fill="#334966" x="31" y="36" width="2" height="2"></rect>
            <rect id="Rectangle" fill="#334966" x="27" y="36" width="2" height="2"></rect>
            <rect id="Rectangle" fill="#334966" x="23" y="36" width="2" height="2"></rect>
            <rect id="Rectangle" fill="#334966" x="19" y="36" width="2" height="2"></rect>
            <rect id="Rectangle" fill="#334966" x="15" y="36" width="2" height="2"></rect>
        </g>
    </g>
</svg>