<svg   width="128px"   height="128px"  viewBox="0 0 48 48" version="1.1" xmlns="http://www.w3.org/2000/svg" xmlns:xlink="http://www.w3.org/1999/xlink">
    <!-- Generator: Sketch 52.6 (67491) - http://www.bohemiancoding.com/sketch -->
    <title>全面-48px</title>
    <desc>Created with Sketch.</desc>
    <g id="全面-48px" stroke="none" stroke-width="1" fill="none" fill-rule="evenodd">
        <rect id="Rectangle-Copy" fill="#444444" opacity="0" x="0" y="0" width="48" height="48"></rect>
        <g id="Group">
            <path d="M36.5538191,37.9680327 L31.748841,33.1630546 C29.6581587,34.9328431 26.9537033,36 24,36 C21.1188405,36 18.4748361,34.9846188 16.4063075,33.2921773 L11.5477733,38.1507115 C11.8366544,38.7037829 12,39.3328158 12,40 C12,40.7526887 11.7921038,41.4568206 11.4306009,42.0581063 C14.9936934,44.5428497 19.3266789,46 24,46 C28.6733211,46 33.0063066,44.5428497 36.5693991,42.0581063 C36.2078962,41.4568206 36,40.7526887 36,40 C36,39.2581914 36.2019294,38.5635459 36.5538191,37.9680327 Z M37.9680327,36.5538191 C38.5635459,36.2019294 39.2581914,36 40,36 C40.7526887,36 41.4568206,36.2078962 42.0581063,36.5693991 C44.5428497,33.0063066 46,28.6733211 46,24 C46,19.3266789 44.5428497,14.9936934 42.0581063,11.4306009 C41.4568206,11.7921038 40.7526887,12 40,12 C39.3328158,12 38.7037829,11.8366544 38.1507115,11.5477733 L33.2921773,16.4063075 C34.9846188,18.4748361 36,21.1188405 36,24 C36,26.9537033 34.9328431,29.6581587 33.1630546,31.748841 L37.9680327,36.5538191 Z M10.2067712,36.6632865 L14.9684609,31.9015968 C13.1201593,29.790703 12,27.0261651 12,24 C12,21.0462967 13.0671569,18.3418413 14.8369454,16.251159 L10.0319673,11.4461809 C9.43645409,11.7980706 8.74180862,12 8,12 C7.24731133,12 6.54317943,11.7921038 5.94189375,11.4306009 C3.45715031,14.9936934 2,19.3266789 2,24 C2,28.6733211 3.45715031,33.0063066 5.94189375,36.5693991 C6.54317943,36.2078962 7.24731133,36 8,36 C8.81563518,36 9.5742525,36.2441224 10.2067712,36.6632865 Z M11.4461809,10.0319673 L16.251159,14.8369454 C18.3418413,13.0671569 21.0462967,12 24,12 C27.0261651,12 29.790703,13.1201593 31.9015968,14.9684609 L36.6632865,10.2067712 C36.2441224,9.5742525 36,8.81563518 36,8 C36,7.24731133 36.2078962,6.54317943 36.5693991,5.94189375 C33.0063066,3.45715031 28.6733211,2 24,2 C19.3266789,2 14.9936934,3.45715031 11.4306009,5.94189375 C11.7921038,6.54317943 12,7.24731133 12,8 C12,8.74180862 11.7980706,9.43645409 11.4461809,10.0319673 Z M4.52140942,38.0239066 C1.67628614,34.079088 0,29.2353028 0,24 C0,18.7646972 1.67628614,13.920912 4.52140942,9.97609343 C4.18955896,9.39318113 4,8.7187275 4,8 C4,5.790861 5.790861,4 8,4 C8.7187275,4 9.39318113,4.18955896 9.97609343,4.52140942 C13.920912,1.67628614 18.7646972,0 24,0 C29.2353028,0 34.079088,1.67628614 38.0239066,4.52140942 C38.6068189,4.18955896 39.2812725,4 40,4 C42.209139,4 44,5.790861 44,8 C44,8.7187275 43.810441,9.39318113 43.4785906,9.97609343 C46.3237139,13.920912 48,18.7646972 48,24 C48,29.2353028 46.3237139,34.079088 43.4785906,38.0239066 C43.810441,38.6068189 44,39.2812725 44,40 C44,42.209139 42.209139,44 40,44 C39.2812725,44 38.6068189,43.810441 38.0239066,43.4785906 C34.079088,46.3237139 29.2353028,48 24,48 C18.7646972,48 13.920912,46.3237139 9.97609343,43.4785906 C9.39318113,43.810441 8.7187275,44 8,44 C5.790861,44 4,42.209139 4,40 C4,39.2812725 4.18955896,38.6068189 4.52140942,38.0239066 Z M40,10 C41.1045695,10 42,9.1045695 42,8 C42,6.8954305 41.1045695,6 40,6 C38.8954305,6 38,6.8954305 38,8 C38,9.1045695 38.8954305,10 40,10 Z M8,10 C9.1045695,10 10,9.1045695 10,8 C10,6.8954305 9.1045695,6 8,6 C6.8954305,6 6,6.8954305 6,8 C6,9.1045695 6.8954305,10 8,10 Z M40,42 C41.1045695,42 42,41.1045695 42,40 C42,38.8954305 41.1045695,38 40,38 C38.8954305,38 38,38.8954305 38,40 C38,41.1045695 38.8954305,42 40,42 Z M8,42 C9.1045695,42 10,41.1045695 10,40 C10,38.8954305 9.1045695,38 8,38 C6.8954305,38 6,38.8954305 6,40 C6,41.1045695 6.8954305,42 8,42 Z M24,34 C29.5228475,34 34,29.5228475 34,24 C34,18.4771525 29.5228475,14 24,14 C18.4771525,14 14,18.4771525 14,24 C14,29.5228475 18.4771525,34 24,34 Z" id="Combined-Shape" fill="#334966" fill-rule="nonzero"></path>
            <circle id="Oval-36" fill="#00A4FF" cx="24" cy="24" r="8"></circle>
        </g>
    </g>
</svg>