<svg   width="128px"   height="128px"  viewBox="0 0 48 48" version="1.1" xmlns="http://www.w3.org/2000/svg" xmlns:xlink="http://www.w3.org/1999/xlink">
    <!-- Generator: Sketch 52.6 (67491) - http://www.bohemiancoding.com/sketch -->
    <title>分布式架构-48px</title>
    <desc>Created with Sketch.</desc>
    <g id="分布式架构-48px" stroke="none" stroke-width="1" fill="none" fill-rule="evenodd">
        <rect id="Rectangle-Copy" fill="#444444" opacity="0" x="0" y="0" width="48" height="48"></rect>
        <g id="Group" transform="translate(1.000000, 1.000000)">
            <polygon id="Polygon" fill="#00A4FF" points="23 9 36.8564065 17 36.8564065 33 23 41 9.14359354 33 9.14359354 17"></polygon>
            <path d="M14.6076952,7.15470054 L14.6076952,16.8452995 L23,21.6905989 L31.3923048,16.8452995 L31.3923048,7.15470054 L23,2.30940108 L14.6076952,7.15470054 Z M23,0 L33.3923048,6 L33.3923048,18 L23,24 L12.6076952,18 L12.6076952,6 L23,0 Z" id="Polygon" fill="#334966" fill-rule="nonzero"></path>
            <path d="M11,24.3094011 L2.60769515,29.1547005 L2.60769515,38.8452995 L11,43.6905989 L19.3923048,38.8452995 L19.3923048,29.1547005 L11,24.3094011 Z M11,22 L21.3923048,28 L21.3923048,40 L11,46 L0.607695155,40 L0.607695155,28 L11,22 Z" id="Polygon-Copy" fill="#334966" fill-rule="nonzero"></path>
            <path d="M26.6076952,29.1547005 L26.6076952,38.8452995 L35,43.6905989 L43.3923048,38.8452995 L43.3923048,29.1547005 L35,24.3094011 L26.6076952,29.1547005 Z M35,22 L45.3923048,28 L45.3923048,40 L35,46 L24.6076952,40 L24.6076952,28 L35,22 Z" id="Polygon-Copy-2" fill="#334966" fill-rule="nonzero"></path>
        </g>
    </g>
</svg>